<svg id="logosandtypes_com" data-name="logosandtypes com" xmlns="http://www.w3.org/2000/svg" xmlns:xlink="http://www.w3.org/1999/xlink" viewBox="0 0 150 150"><defs><style>.cls-1{fill:none;}.cls-2{fill:url(#radial-gradient);}</style><radialGradient id="radial-gradient" cx="51.3" cy="99.3" r="96.2" gradientUnits="userSpaceOnUse"><stop offset="0" stop-color="#419ad5"/><stop offset="0.45" stop-color="#397bb4"/><stop offset="1" stop-color="#2e5085"/></radialGradient></defs><path class="cls-1" d="M0,0H150V150H0Z" transform="translate(0 0)"/><path class="cls-2" d="M74.88,13.32h-.14a61.68,61.68,0,1,0,.14,0ZM41,38.51h9.82V67.6L41,54.58Zm9.87,73.71H41.41V97l9.47-13Zm1.79-73.71h9.59V64.84L55.65,74l-3-4Zm9.62,73.71H52.7V81.4l9.59-13.28ZM64.08,38.8l8.67,11.54-8.67,12Zm9.59,60.28-9.55,13.14V65.61l9.55-13.19ZM85,112.22,75.44,99.08V52.42L85,65.61Zm0-49.88-8.67-12L85,38.82Zm11.42,49.88H86.83V68.12L96.42,81.4Zm0-42.22-3,4-6.61-9.14V38.52h9.59Zm11.29,42.22H98.25V84l9.46,13Zm.35-57.62-9.81,13V38.53h9.81Z" transform="translate(0 0)"/></svg>